<?xml version="1.0" standalone="no"?><!DOCTYPE svg PUBLIC "-//W3C//DTD SVG 1.1//EN" "http://www.w3.org/Graphics/SVG/1.1/DTD/svg11.dtd"><svg t="1602470623046" class="icon" viewBox="0 0 1024 1024" version="1.1" xmlns="http://www.w3.org/2000/svg" p-id="3982" xmlns:xlink="http://www.w3.org/1999/xlink" width="1024" height="1024"><defs><style type="text/css"></style></defs><path d="M512 1024C229.21216 1024 0 794.78784 0 512S229.21216 0 512 0c282.76736 0 512 229.21216 512 512S794.76736 1024 512 1024z m0-979.47648C253.80864 44.52352 44.52352 253.82912 44.52352 512c0 258.19136 209.3056 467.47648 467.47648 467.47648 258.19136 0 467.47648-209.3056 467.47648-467.47648 0-258.19136-209.3056-467.47648-467.47648-467.47648z m120.0128 849.83808l-14.04928-42.20928A356.90496 356.90496 0 0 0 851.92704 617.8816l42.22976 14.06976c-39.13728 124.7232-137.37984 223.27296-262.144 262.38976z m-35.20512-105.6768l-14.09024-42.27072c78.31552-23.61344 139.63264-85.56544 163.2256-163.84l42.5984 14.19264a289.8944 289.8944 0 0 1-191.73376 191.93856zM512 690.11456a178.09408 178.09408 0 1 1 0-356.18816 178.09408 178.09408 0 0 1 0 356.18816z m0-311.66464a133.55008 133.55008 0 1 0 0 267.14112 133.55008 133.55008 0 1 0 0-267.14112z m0 159.82592a26.25536 26.25536 0 1 1 0-52.51072 26.25536 26.25536 0 0 1 0 52.51072z m-234.41408-96.9728l-42.2912-14.09024a289.8944 289.8944 0 0 1 191.93856-191.73376l14.19264 42.5984c-78.27456 23.59296-140.22656 84.91008-163.84 163.2256z m-105.73824-35.2256l-42.1888-14.09024C168.7552 267.22304 267.28448 168.98048 392.00768 129.8432l14.06976 42.22976A356.90496 356.90496 0 0 0 171.84768 406.03648z" p-id="3983"></path></svg>